<svg xmlns="http://www.w3.org/2000/svg" viewBox="0 0 1024 1024">
  <defs>
    <radialGradient id="centerGrad" cx="50%" cy="45%" r="55%">
      <stop offset="0%" stop-color="#3d3935"/>
      <stop offset="100%" stop-color="#2d2a26"/>
    </radialGradient>
    <radialGradient id="amberGrad" cx="50%" cy="45%" r="55%">
      <stop offset="0%" stop-color="#dab07a"/>
      <stop offset="100%" stop-color="#c89958"/>
    </radialGradient>
  </defs>

  <rect x="0" y="0" width="1024" height="1024" rx="224" ry="224" fill="#fafaf7" stroke="#e8e4d8" stroke-width="2"/>

  <ellipse cx="520" cy="540" rx="110" ry="22" fill="#2d2a26" opacity="0.06"/>

  <g stroke="#2d2a26" stroke-width="18" fill="none" stroke-linecap="round" opacity="0.92">
    <path d="M 479 423 Q 410 380 410 240"/>
    <path d="M 580 446 Q 700 400 760 270"/>
    <path d="M 605 521 Q 720 540 770 510"/>
    <path d="M 575 583 Q 720 700 800 770"/>
    <path d="M 433 565 Q 350 650 270 690"/>
  </g>

  <circle cx="685" cy="379" r="20" fill="#2d2a26"/>
  <circle cx="725" cy="705" r="22" fill="#2d2a26"/>

  <circle cx="410" cy="240" r="36" fill="#2d2a26"/>
  <circle cx="760" cy="270" r="40" fill="#2d2a26"/>
  <circle cx="770" cy="510" r="32" fill="#2d2a26"/>
  <circle cx="270" cy="690" r="34" fill="#2d2a26"/>

  <circle cx="800" cy="770" r="68" fill="none" stroke="#c89958" stroke-width="3" opacity="0.32"/>
  <circle cx="800" cy="770" r="50" fill="url(#amberGrad)"/>

  <circle cx="512" cy="512" r="95" fill="url(#centerGrad)"/>
</svg>
